HIERARCHY
ROOT Spine
{
    OFFSET 0.0 0.0 -0.0
    CHANNELS 6 Xposition Yposition Zposition Zrotation Xrotation Yrotation
    JOINT ShoulderCenter
    {
        OFFSET 0.0 39.29853439331055 0.0
        CHANNELS 3 Zrotation Xrotation Yrotation
        JOINT LeftShoulder
        {
            OFFSET 21.754745483398438 0.0 0.0
            CHANNELS 3 Zrotation Xrotation Yrotation
            JOINT LeftElbow
            {
                OFFSET 29.95451545715332 0.0 0.0
                CHANNELS 3 Zrotation Xrotation Yrotation
                JOINT LeftHand
                {
                    OFFSET 32.910804748535156 0.0 0.0
                    CHANNELS 3 Zrotation Xrotation Yrotation
                    End Site
                    {
                        OFFSET 13.164321899414062 0.0 0.0
                    }
                }
            }
        }
        JOINT RightShoulder
        {
            OFFSET -21.754745483398438 0.0 0.0
            CHANNELS 3 Zrotation Xrotation Yrotation
            JOINT RightElbow
            {
                OFFSET -29.95451545715332 0.0 0.0
                CHANNELS 3 Zrotation Xrotation Yrotation
                JOINT RightHand
                {
                    OFFSET -32.910804748535156 0.0 0.0
                    CHANNELS 3 Zrotation Xrotation Yrotation
                    End Site
                    {
                        OFFSET -13.164321899414062 0.0 0.0
                    }
                }
            }
        }
        End Site
        {
            OFFSET 0.0 15.719412803649902 0.0
        }
    }
    JOINT LeftHip
    {
        OFFSET 16.641321008804102 -16.641321008804102 0.0
        CHANNELS 3 Zrotation Xrotation Yrotation
        JOINT LeftKnee
        {
            OFFSET 0.0 -42.358497619628906 0.0
            CHANNELS 3 Zrotation Xrotation Yrotation
            JOINT LeftFoot
            {
                OFFSET 0.0 -47.91651916503906 0.0
                CHANNELS 3 Zrotation Xrotation Yrotation
                End Site
                {
                    OFFSET 0.0 0.0 19.166606903076172
                }
            }
        }
    }
    JOINT RightHip
    {
        OFFSET -16.641321008804102 -16.641321008804102 0.0
        CHANNELS 3 Zrotation Xrotation Yrotation
        JOINT RightKnee
        {
            OFFSET 0.0 -42.358497619628906 0.0
            CHANNELS 3 Zrotation Xrotation Yrotation
            JOINT RightFoot
            {
                OFFSET 0.0 -47.91651916503906 0.0
                CHANNELS 3 Zrotation Xrotation Yrotation
                End Site
                {
                    OFFSET 0.0 0.0 19.166606903076172
                }
            }
        }
    }
}
MOTION
Frames: 8
Frame Time: 0.03333333333333333
-94.0 10.699999809265137 64.0 -1.3253751987104432 7.611921022739716 -12.363090894032895 1.19653022187569e-07 4.5754294477615116e-07 -5.736904438450412 96.9407361999787 22.51943775527002 175.84441712689394 4.7338206615857815e-06 4.1054882641875907e-07 32.27295381872994 9.14409470920761e-15 -1.5902773407317584e-15 -1.5902773407317582e-15 -86.76345821528425 27.041479577540837 -179.3503909883784 1.0646924708307514e-06 -3.1885420514378155e-06 -33.31042317071506 2.3854160110976376e-15 1.3241718894150476e-31 6.3611093629270335e-15 -3.2173473183949253 -26.820141077910247 35.04149896788988 17.336862904048623 18.469970128678597 -55.15407818536605 -9.051956275298177e-34 9.93923337957349e-17 1.0436195048552165e-15 5.87612617316823 -30.070621110933345 -30.073266258191335 -18.083869244438972 25.801227431895633 51.171379771891594 0.0 0.0 4.9696166897867443e-17
-94.5 10.899999618530273 63.599998474121094 -1.328789597820469 7.921156273593782 -12.883375755368865 -4.990047833118921e-07 9.532184444030166e-07 -5.0558119880388315 96.89608762046907 23.45915646907195 176.9961309436081 -7.15567073351609e-07 1.5957502869960855e-06 32.25271230040831 1.9878466759146984e-15 -2.758691436281349e-32 -1.5902773407317588e-15 -86.62596962862182 24.973851809189835 -179.24781176628554 -1.6965488593313797e-06 1.999909497807348e-06 -33.41529811508092 5.565970692561153e-15 7.724336021587778e-32 1.590277340731758e-15 -2.9067876292515 -26.975981763336804 34.793757155159966 17.273574629766483 18.000824072143192 -54.67068552152123 1.2586529678033654e-32 7.951386703658792e-16 -1.8139100917721617e-15 5.338723016574495 -31.608677134234792 -32.27997593282348 -19.49112606237798 27.199992776571335 54.63304577245907 2.101346992479934e-33 -1.6151254241806921e-15 1.4908850069360235e-16
-95.0999984741211 11.100000381469727 63.099998474121094 -1.3287899129846128 8.2105980261269 -13.630871281080019 -2.9047977427506292e-08 9.085623021188136e-07 -4.244070677098512 96.87021246303999 24.395821425243994 177.68977151412594 5.546284824990577e-06 2.0590642385482553e-07 32.889793754675914 -6.361109362927033e-15 8.827812596100317e-32 -1.5902773407317582e-15 -86.359946383291 23.520678549539866 -179.0567688679787 2.27067498858506e-07 3.3656854960649184e-06 -34.101457159710485 7.156248033292912e-15 -2.979386751183857e-31 -4.7708320221952736e-15 -2.3853426093487045 -27.0141331384978 34.74132321096169 17.12194082180796 17.383428454911304 -55.038441528295195 0.0 0.0 -7.889266495036458e-15 5.393156561644596 -32.35280731434214 -32.38232704871369 -21.574834840547567 27.348145553106292 58.18368809024525 1.1034765745125397e-32 1.5902773407317582e-15 -7.951386703658791e-16
-95.80000305175781 11.300000190734863 62.69999694824219 -1.4763684805297719 8.354654975224086 -12.907576070071991 -5.615263222809963e-08 1.3520442456240566e-07 -4.467648566021986 97.40392987581137 23.2477305556427 177.53403955188713 4.4204267163520955e-06 6.097348243749089e-07 34.0516711669411 5.168401357378215e-15 -3.1805546814635168e-15 1.5902773407317584e-15 -86.25884553207429 22.199738531462547 -179.23480641544032 -7.87213323049797e-06 -6.470175530330124e-07 -33.897683558947065 -6.361109362927035e-15 -8.827812596100317e-32 1.5902773407317588e-15 -2.1922296600827407 -26.548955669427002 33.129916054221624 16.2465855729847 16.85197730732905 -52.417188550944985 0.0 0.0 1.341796506242421e-15 4.248793121414896 -32.316886504916916 -33.79058214505239 -24.340158421095452 26.711646349518844 64.87291949952132 1.987846675914698e-16 3.663887063811167e-33 2.1120870931593667e-15
-96.5 11.699999809265137 62.30000305175781 -1.3322219264248858 8.231514405579944 -12.631270878826706 3.407950885961398e-08 -6.844407999699629e-07 -5.0609512585755265 97.49675650260964 23.13587454553054 177.31782002169683 -5.088715931088479e-06 -1.4751581242294149e-06 34.76079457968184 -2.3854160110976376e-15 3.310429723537619e-32 -1.5902773407317584e-15 -86.20458944684975 21.89445516529189 -179.5380167563643 -4.924427701835448e-07 1.0573521914788245e-06 -33.91488933169214 -7.951386703658792e-15 -1.6552148617688094e-31 2.3854160110976376e-15 -2.2255154424421875 -26.230721244404787 33.21122927782983 16.149209960224017 15.851829425122304 -50.68511688123491 -1.987846675914698e-16 -3.975693351829396e-16 -1.3231604436557208e-15 3.013056448002574 -31.976410853950153 -35.33111840066595 -26.55938063584249 25.867156146906247 70.63987480179317 -1.5530052155583588e-16 1.5895008381239796e-15 4.36006214268009e-15
-97.29999542236328 11.90000057220459 61.900001525878906 -1.033570195723337 8.21146046640549 -12.78494614106248 -8.749822713289642e-08 -3.5677356965219553e-07 -4.737480376674004 97.57552039542807 22.02310279807407 176.91048481906182 5.068320633584028e-06 -9.16733218831779e-07 35.737392903685695 8.74652537402467e-15 -3.1805546814635168e-15 2.427648463927587e-31 -86.31797050459492 22.500993296711655 -179.5389737205696 2.262577108867127e-08 1.9405032878361444e-06 -33.93576254785356 -8.74652537402467e-15 1.2138242319637935e-31 -1.5902773407317584e-15 -1.9037450683104722 -26.056437252713597 34.16062681276635 15.963405977961173 15.019085475698565 -51.06269808018956 0.0 0.0 1.164753911668768e-16 2.31007182025042 -31.31185535062669 -34.51274519133715 -26.646630107053024 25.63465714797487 71.80430001186677 -4.969616689786746e-16 -1.6027013824562257e-15 1.3542205479668884e-15
-98.0999984741211 12.100000381469727 61.400001525878906 -0.8859442765885114 8.21180856310113 -12.400015094950575 -9.007329532318341e-08 5.900637695568432e-07 -4.530719594232122 97.78825286716776 20.860389734156033 176.73259430269275 1.3180382855749802e-07 -1.5351484983130652e-06 36.13726003856595 2.7829853462805764e-15 -3.862168010793889e-32 -1.590277340731758e-15 -86.52322063554159 22.753547288303956 -179.19026830006243 2.7600461214105304e-06 -1.1311979048207718e-06 -34.37887091265555 -1.5902773407317584e-15 -6.3611093629270335e-15 7.951386703658791e-16 -1.819260950873955 -25.832405655619905 33.706736002916486 15.658414279120024 14.328632585646494 -49.607716434416744 0.0 0.0 2.58187117086577e-16 1.5038998756581068 -30.316805541835127 -34.11125062013782 -25.687018734929968 25.46257521678208 72.12305395999336 -2.981770013872048e-16 1.4224502718325707e-33 -5.46657835876542e-16
-98.9000015258789 12.199999809265137 60.79999923706055 -0.7383069283681211 8.356700814099506 -12.171353659068117 1.3204433846450071e-07 8.221840774997767e-07 -4.35461644215223 97.63860029268064 20.706411361219015 176.58202853384478 8.058365285836696e-07 -1.4040550352591396e-07 36.680630130805824 -6.7586786981099735e-15 -1.5902773407317582e-15 -3.1805546814635168e-15 -86.53656856809978 23.395119316747756 -179.41328194677925 7.222886156676337e-07 -3.1515912818760926e-06 -34.41221885192482 -1.5902773407317592e-15 6.361109362927035e-15 3.1805546814635176e-15 -1.3018961953144983 -25.836135405691433 34.180791565719446 15.37165353950065 13.81018900683591 -50.867817469562844 9.93923337957349e-17 -3.3432969457276894e-33 -3.854558945015844e-15 1.3564050319496757 -28.831663176544307 -30.797698188604844 -23.177274849626652 25.72534829619644 68.76245307233067 -9.93923337957349e-17 -2.7802437131272972e-33 3.2054027649124505e-15
